<svg width="34" height="34" viewBox="0 0 34 34" fill="none" xmlns="http://www.w3.org/2000/svg">
<g clip-path="url(#clip0)">
<path d="M8.159 24.4932C8.58027 24.4913 8.92044 24.1904 8.91874 23.8211L8.87468 14.2092C8.87299 13.84 8.53009 13.5422 8.10881 13.5442L5.76476 13.5549C5.34349 13.5568 5.00333 13.8577 5.00502 14.227C5.00671 14.5962 5.34962 14.894 5.77089 14.8921L7.35214 14.8848L7.39313 23.828C7.39482 24.1974 7.73773 24.4951 8.159 24.4932Z" fill="#283845"/>
<path d="M22.1472 16.4841L22.1675 20.9292C22.1762 22.8304 23.9482 24.3692 26.1174 24.3592C28.2867 24.3493 30.0444 22.7944 30.0357 20.8931L30.0153 16.448C30.0066 14.5468 28.2347 13.0081 26.0654 13.018C23.8962 13.028 22.1384 14.5829 22.1472 16.4841ZM28.4897 16.455L28.5101 20.9001C28.5154 22.0642 27.4393 23.016 26.1112 23.0221C24.7832 23.0282 23.6985 22.0862 23.6931 20.9222L23.6728 16.4771C23.6674 15.3131 24.7435 14.3613 26.0715 14.3552C27.3996 14.3491 28.4844 15.2911 28.4897 16.455Z" fill="#283845"/>
<path d="M11.9069 16.7818L11.9273 21.2269C11.936 23.1281 13.7079 24.6668 15.8771 24.6569C18.0465 24.6469 19.8042 23.092 19.7955 21.1908L19.7751 16.7457C19.7664 14.8445 17.9945 13.3058 15.8252 13.3157C13.6559 13.3256 11.8982 14.8805 11.9069 16.7818ZM18.2494 16.7527L18.2698 21.1978C18.2751 22.3618 17.199 23.3137 15.8709 23.3197C14.5429 23.3258 13.4581 22.3838 13.4528 21.2199L13.4324 16.7748C13.4271 15.6108 14.5032 14.6589 15.8312 14.6528C17.1593 14.6468 18.2441 15.5888 18.2494 16.7527Z" fill="#283845"/>
</g>
<defs>
<clipPath id="clip0">
<rect width="34" height="34" fill="white"/>
</clipPath>
</defs>
</svg>
