<svg width="30" height="30" viewBox="0 0 30 30" fill="none" xmlns="http://www.w3.org/2000/svg">
<path d="M10.3718 18.0252C10.3718 18.6079 9.89936 19.0804 9.31662 19.0804C8.73389 19.0804 8.26147 18.6079 8.26147 18.0252C8.26147 17.4425 8.73389 16.9701 9.31662 16.9701C9.89936 16.9701 10.3718 17.4425 10.3718 18.0252Z" fill="#283845"/>
<path d="M21.83 18.0252C21.83 18.6079 21.3576 19.0804 20.7749 19.0804C20.1921 19.0804 19.7197 18.6079 19.7197 18.0252C19.7197 17.4425 20.1921 16.9701 20.7749 16.9701C21.3576 16.9701 21.83 17.4425 21.83 18.0252Z" fill="#283845"/>
<path d="M15.0599 20.306C15.5879 20.306 16.0764 20.0662 16.3998 19.648C16.5483 19.4557 16.5131 19.1795 16.3208 19.0307C16.1286 18.8821 15.8523 18.9174 15.7035 19.1097C15.5481 19.3106 15.3135 19.426 15.0599 19.426C14.8065 19.426 14.5719 19.3106 14.4165 19.1099C14.2678 18.9176 13.9913 18.8824 13.7992 19.0311C13.607 19.1797 13.5717 19.4562 13.7205 19.6485C14.0439 20.0662 14.5321 20.306 15.0599 20.306Z" fill="#283845"/>
<path d="M11.2865 16.0911V15.0099C11.2865 14.7668 11.0897 14.5698 10.8466 14.5698C10.6036 14.5698 10.4065 14.7668 10.4065 15.0099V16.0911C10.4065 16.334 10.6036 16.5311 10.8466 16.5311C11.0897 16.5311 11.2865 16.334 11.2865 16.0911Z" fill="#283845"/>
<path d="M19.6847 16.0911V15.0099C19.6847 14.7668 19.4879 14.5698 19.2448 14.5698C19.0018 14.5698 18.8047 14.7668 18.8047 15.0099V16.0911C18.8047 16.334 19.0018 16.5311 19.2448 16.5311C19.4877 16.5311 19.6847 16.334 19.6847 16.0911Z" fill="#283845"/>
<path d="M25.6344 11.7948V11.6973C25.6344 6.53826 21.9254 2.23 17.0341 1.29684C16.4866 0.609508 15.6679 0.135263 14.751 0.0233393C13.5434 -0.124519 12.2846 0.442195 11.6183 1.43303C11.5508 1.53374 11.4908 1.63742 11.4368 1.74339C7.37002 3.22243 4.45748 7.1258 4.45748 11.6973V11.7948C3.16956 11.95 2.16797 13.0516 2.16797 14.3839C2.16797 15.7165 3.16956 16.8181 4.45748 16.9733V16.9739C4.45748 18.599 4.95164 20.1563 5.8864 21.4772C6.0267 21.6757 6.30136 21.7228 6.4998 21.5823C6.69825 21.442 6.74517 21.1673 6.60486 20.9689C5.77562 19.7972 5.33754 18.4159 5.33754 16.9739V11.6973C5.33754 7.73532 7.72364 4.32084 11.1338 2.81342C11.0479 3.64724 11.2336 4.42727 11.689 5.13498C11.8206 5.33937 12.0928 5.39842 12.2972 5.26682C12.5016 5.13521 12.5606 4.86307 12.429 4.65867C12.0502 4.07022 11.9175 3.41401 12.0346 2.70791C12.0809 2.4289 12.1864 2.16522 12.3487 1.92375C12.8346 1.20094 13.7572 0.788266 14.6441 0.896527C15.6707 1.02218 16.5304 1.75026 16.7831 2.70859C16.8801 3.07641 16.9165 3.49389 16.9549 3.93563C16.9824 4.25355 17.011 4.58223 17.0648 4.89923C17.1898 5.63806 17.4841 6.19677 17.7986 6.78316C16.5581 6.96192 14.9467 6.61104 13.7728 5.90425C13.5645 5.77883 13.2942 5.84589 13.1688 6.05417C13.0436 6.26223 13.1106 6.53277 13.3189 6.65819C14.4315 7.32813 15.8437 7.70991 17.1152 7.70991C17.4113 7.70991 17.7 7.68908 17.9753 7.64651C18.247 7.6044 18.4827 7.43205 18.6054 7.18554C18.7286 6.9388 18.7242 6.64652 18.5937 6.40368C18.2946 5.84612 18.0362 5.36455 17.9325 4.75229C17.8849 4.47053 17.859 4.17367 17.8316 3.85942C17.7917 3.40005 17.7503 2.92489 17.634 2.48406C17.6201 2.43096 17.6043 2.37854 17.5876 2.32659C21.712 3.44651 24.7544 7.22308 24.7544 11.697L24.7541 12.2118V12.2152L24.7537 16.9737C24.7537 18.8091 24.0444 20.5376 22.7562 21.8404C21.469 23.1421 19.7542 23.8677 17.9277 23.883C17.924 23.883 17.9206 23.8832 17.9172 23.8832C17.9005 23.8839 17.8844 23.8837 17.868 23.8837H12.2232C12.2072 23.8837 12.191 23.8837 12.1752 23.8832C12.1715 23.8832 12.1679 23.8832 12.1642 23.883C10.6103 23.8702 9.14798 23.3502 7.93467 22.3797C7.74493 22.2279 7.46798 22.2588 7.31623 22.4486C7.16448 22.6383 7.19515 22.9151 7.38489 23.067C7.80879 23.406 8.25991 23.6953 8.73233 23.935C7.32332 24.9146 6.19745 26.2348 5.46205 27.7809C5.21165 28.3068 4.99147 28.8596 4.80745 29.4233C4.7635 29.5575 4.78662 29.7042 4.86947 29.8184C4.95233 29.9326 5.08462 29.9999 5.22561 29.9999H24.8656C25.0066 29.9999 25.1389 29.9326 25.2217 29.8184C25.3046 29.7042 25.3277 29.5575 25.284 29.4233C25.116 28.909 24.9178 28.4034 24.6946 27.9205C23.9427 26.2922 22.7727 24.9331 21.3477 23.9416C22.092 23.5667 22.7786 23.0693 23.3817 22.4591C24.8338 20.9906 25.6337 19.0424 25.6337 16.9739V16.973C26.9216 16.8181 27.9235 15.7165 27.9235 14.3839C27.9237 13.0516 26.9221 11.95 25.6344 11.7948ZM4.45748 16.084C3.65662 15.9364 3.04802 15.2303 3.04802 14.3839C3.04802 13.5377 3.65662 12.8316 4.45748 12.684V16.084ZM17.2012 24.764C16.7945 25.4557 16.0337 25.8933 15.2118 25.8933H14.8799C14.0593 25.8933 13.3022 25.4568 12.8914 24.764H17.2012ZM23.8958 28.2897C24.0206 28.5598 24.1371 28.8374 24.2442 29.1201H5.84726C5.97154 28.7921 6.10864 28.4705 6.25673 28.159C6.99099 26.6156 8.15165 25.3181 9.61284 24.4062C9.64511 24.3861 9.67807 24.3673 9.71034 24.3479C10.413 24.5884 11.1512 24.7273 11.9108 24.7571C11.9342 24.8143 11.9587 24.8713 11.9843 24.9272C12.502 26.0487 13.6389 26.7733 14.8799 26.7733H15.2118C16.4372 26.7733 17.5658 26.0656 18.0868 24.9706C18.12 24.9008 18.1511 24.8292 18.1808 24.7569C18.935 24.7271 19.67 24.5893 20.3683 24.3522C21.8837 25.2725 23.1284 26.6278 23.8958 28.2897ZM25.6342 16.084V12.684C26.435 12.8319 27.0434 13.5377 27.0434 14.3839C27.0434 15.2303 26.4348 15.9364 25.6342 16.084Z" fill="#283845"/>
</svg>
