<svg width="32" height="32" viewBox="0 0 32 32" fill="none" xmlns="http://www.w3.org/2000/svg">
<path d="M3.125 13.8598C3.00899 13.8598 2.89775 13.906 2.81571 13.988C2.73368 14.07 2.68757 14.1813 2.6875 14.2973V16.2348C2.6875 16.3508 2.73359 16.4621 2.81564 16.5441C2.89769 16.6262 3.00897 16.6723 3.125 16.6723C3.24103 16.6723 3.35231 16.6262 3.43436 16.5441C3.51641 16.4621 3.5625 16.3508 3.5625 16.2348V14.2973C3.56243 14.1813 3.51632 14.07 3.43429 13.988C3.35225 13.906 3.24101 13.8598 3.125 13.8598Z" fill="#283845"/>
<path d="M8.61572 15.525C7.78752 15.525 6.9779 15.7706 6.28927 16.2307C5.60064 16.6909 5.06392 17.3449 4.74698 18.11C4.43004 18.8752 4.34711 19.7172 4.50869 20.5295C4.67026 21.3418 5.06908 22.0879 5.65471 22.6735C6.24035 23.2592 6.98649 23.658 7.79878 23.8196C8.61108 23.9811 9.45305 23.8982 10.2182 23.5813C10.9834 23.2643 11.6374 22.7276 12.0975 22.039C12.5576 21.3503 12.8032 20.5407 12.8032 19.7125C12.802 18.6023 12.3604 17.5379 11.5753 16.7529C10.7903 15.9679 9.72593 15.5263 8.61572 15.525ZM8.61572 23.025C7.96057 23.025 7.32014 22.8308 6.7754 22.4668C6.23066 22.1028 5.80609 21.5854 5.55537 20.9802C5.30466 20.3749 5.23906 19.7089 5.36687 19.0663C5.49469 18.4237 5.81017 17.8335 6.27343 17.3702C6.73669 16.907 7.32693 16.5915 7.96949 16.4637C8.61205 16.3359 9.27808 16.4015 9.88336 16.6522C10.4886 16.9029 11.006 17.3275 11.37 17.8722C11.7339 18.4169 11.9282 19.0574 11.9282 19.7125C11.9272 20.5908 11.5779 21.4327 10.9569 22.0537C10.3359 22.6747 9.49395 23.024 8.61572 23.025Z" fill="#283845"/>
<path d="M28.875 22.1875H23.015L23.0615 21.7355V21.7298L23.6615 15.9048C23.6614 15.9033 23.6614 15.9019 23.6615 15.9005L24.15 11.1698C24.1562 11.1089 24.1496 11.0474 24.1306 10.9892C24.1116 10.931 24.0806 10.8775 24.0396 10.8321C23.9986 10.7866 23.9485 10.7503 23.8926 10.7254C23.8367 10.7005 23.7762 10.6876 23.715 10.6875H15.7635C15.5429 10.1733 15.1997 9.72104 14.7639 9.37017C14.328 9.0193 13.8129 8.78053 13.2635 8.67476V6.43751C13.2635 6.37998 13.2521 6.32302 13.23 6.26989C13.208 6.21676 13.1757 6.1685 13.1349 6.12787C13.0942 6.08724 13.0459 6.05503 12.9927 6.03309C12.9395 6.01115 12.8825 5.99991 12.825 6.00001H9.8025V4.14076H12.2823C12.3983 4.14076 12.5096 4.09466 12.5916 4.01262C12.6737 3.93057 12.7198 3.81929 12.7198 3.70326C12.7206 3.18316 12.5287 2.68119 12.1811 2.29435C11.8334 1.9075 11.3547 1.66324 10.8375 1.60876L6.9185 1.19001C6.85747 1.18349 6.79576 1.18988 6.73736 1.20876C6.67897 1.22765 6.6252 1.25861 6.57955 1.29964C6.5339 1.34066 6.4974 1.39084 6.47241 1.44689C6.44742 1.50295 6.4345 1.56363 6.4345 1.62501V3.70326C6.43457 3.81927 6.48068 3.93051 6.56271 4.01254C6.64475 4.09458 6.75599 4.14069 6.872 4.14076H7.4275V6.00001H4.4075C4.29149 6.00007 4.18025 6.04619 4.09821 6.12822C4.01618 6.21026 3.97007 6.3215 3.97 6.43751V8.67501C3.18735 8.82785 2.48205 9.24767 1.97456 9.86277C1.46707 10.4779 1.18887 11.2501 1.1875 12.0475V28.875C1.1881 29.3887 1.39242 29.8811 1.75564 30.2444C2.11886 30.6076 2.61133 30.8119 3.125 30.8125H14.1075C14.4915 30.8129 14.8669 30.6985 15.1855 30.484C15.2094 30.5778 15.2639 30.661 15.3403 30.7205C15.4167 30.78 15.5107 30.8123 15.6075 30.8125H30.375C30.491 30.8124 30.6023 30.7663 30.6843 30.6843C30.7663 30.6023 30.8124 30.491 30.8125 30.375V24.125C30.8119 23.6113 30.6076 23.1189 30.2444 22.7556C29.8811 22.3924 29.3887 22.1881 28.875 22.1875ZM29.9375 24.125V24.1875H21.0625V24.125C21.0628 23.8433 21.1749 23.5733 21.3741 23.3741C21.5732 23.1749 21.8433 23.0628 22.125 23.0625H28.875C29.1567 23.0628 29.4268 23.1749 29.6259 23.3741C29.8251 23.5733 29.9372 23.8433 29.9375 24.125ZM22.125 22.1875C21.6113 22.1881 21.1189 22.3924 20.7556 22.7556C20.3924 23.1189 20.1881 23.6113 20.1875 24.125V26.67H16.0023L15.5328 22.1225H22.142L22.1353 22.1875H22.125ZM14.9323 16.2975H22.7423L22.2323 21.2475H15.4425L15.366 20.507L14.9323 16.2975ZM22.8323 15.4225H14.841L14.4427 11.5625H23.23L22.8323 15.4225ZM7.3095 2.11176L10.7445 2.47876C10.9708 2.50265 11.186 2.58887 11.3662 2.72781C11.5465 2.86676 11.6846 3.05298 11.7653 3.26576H9.371H9.365H9.359H7.871H7.865H7.859H7.309L7.3095 2.11176ZM8.3025 4.14076H8.9275V6.00001H8.3025V4.14076ZM12.3875 6.87501V8.61001H4.845V6.87501H12.3875ZM14.1075 29.9375H3.125C2.84331 29.9372 2.57325 29.8251 2.37406 29.6259C2.17488 29.4268 2.06283 29.1567 2.0625 28.875V12.0475C2.06323 11.3681 2.33344 10.7168 2.81384 10.2364C3.29425 9.75595 3.94561 9.48574 4.625 9.48501H12.6075C13.0419 9.48425 13.4693 9.59427 13.8494 9.80468C14.2294 10.0151 14.5496 10.3189 14.7795 10.6875H13.9575C13.8962 10.6875 13.8357 10.7004 13.7797 10.7252C13.7237 10.7501 13.6736 10.7865 13.6326 10.832C13.5915 10.8774 13.5605 10.931 13.5415 10.9893C13.5225 11.0475 13.5159 11.1091 13.5223 11.17L14.5145 20.7808L14.6123 21.7308V21.7333L15.17 27.13V28.875C15.1697 29.1567 15.0576 29.4268 14.8584 29.6259C14.6593 29.8251 14.3892 29.9372 14.1075 29.9375ZM16.045 28.875V27.545H20.1875V29.9375H16.045V28.875ZM29.9375 29.9375H21.0625V25.0625H29.9375V29.9375Z" fill="#283845"/>
<path d="M25.5 25.6458C24.65 25.6458 23.9583 26.4778 23.9583 27.5C23.9583 28.5223 24.65 29.3543 25.5 29.3543C26.35 29.3543 27.0418 28.5223 27.0418 27.5C27.0418 26.4778 26.35 25.6458 25.5 25.6458ZM25.5 28.4793C25.1388 28.4793 24.8333 28.0308 24.8333 27.5C24.8333 26.9693 25.1388 26.5208 25.5 26.5208C25.8613 26.5208 26.1668 26.9693 26.1668 27.5C26.1668 28.0308 25.8613 28.4793 25.5 28.4793Z" fill="#283845"/>
</svg>
