<svg width="30" height="30" viewBox="0 0 30 30" fill="none" xmlns="http://www.w3.org/2000/svg">
<g clip-path="url(#clip0)">
<path d="M13.1026 10.3392C13.3453 10.3392 13.5421 10.1425 13.5421 9.89969V9.32285C13.5421 9.08008 13.3453 8.88336 13.1026 8.88336C12.8599 8.88336 12.6631 9.08008 12.6631 9.32285V9.89969C12.6631 10.1425 12.8599 10.3392 13.1026 10.3392Z" fill="#283845"/>
<path d="M16.889 10.3392C17.1317 10.3392 17.3284 10.1425 17.3284 9.89969V9.32285C17.3284 9.08008 17.1317 8.88336 16.889 8.88336C16.6462 8.88336 16.4495 9.08008 16.4495 9.32285V9.89969C16.4495 10.1425 16.6462 10.3392 16.889 10.3392Z" fill="#283845"/>
<path d="M14.9999 13.8347C15.85 13.8347 16.5416 13.1431 16.5416 12.293C16.5416 12.0502 16.3449 11.8535 16.1021 11.8535C15.8593 11.8535 15.6626 12.0502 15.6626 12.293C15.6626 12.6584 15.3653 12.9557 14.9999 12.9557C14.6345 12.9557 14.3372 12.6584 14.3372 12.293C14.3372 12.0502 14.1405 11.8535 13.8977 11.8535C13.655 11.8535 13.4583 12.0502 13.4583 12.293C13.4583 13.1431 14.1498 13.8347 14.9999 13.8347Z" fill="#283845"/>
<path d="M25.4504 21.764C25.4504 20.4915 24.635 19.3798 23.4213 18.9973L18.0108 17.2935V15.545C19.1248 14.7225 19.849 13.4009 19.849 11.913V11.5266H20.2921C21.2096 11.5266 21.9561 10.7801 21.9561 9.86257V8.94498C21.9561 8.15226 21.3987 7.48769 20.6555 7.32139C21.2154 6.55012 20.6911 5.49242 19.849 5.24566V2.25955C19.849 1.01363 18.8354 0 17.5894 0H12.4105C11.1646 0 10.151 1.01363 10.151 2.25955V5.25428C9.26327 5.50613 8.76108 6.51432 9.35093 7.31993C8.60451 7.48388 8.04401 8.15003 8.04401 8.94498V9.86257C8.04401 10.7801 8.7905 11.5266 9.70803 11.5266H10.151V11.913C10.151 13.4009 10.8752 14.7225 11.9892 15.545V17.2935L6.5504 19.0069C5.35365 19.397 4.54956 20.505 4.54956 21.764V22.4619C4.54956 22.7047 4.74633 22.9014 4.98905 22.9014C5.23176 22.9014 5.42854 22.7047 5.42854 22.4619V21.764C5.42854 20.8866 5.98885 20.1145 6.81866 19.8439L12.292 18.1196L14.6738 20.7564C14.8913 20.9497 15.1087 20.9497 15.3263 20.7564L17.708 18.1196L23.1573 19.8357C24.0032 20.1022 24.5715 20.8771 24.5715 21.7639V25.4817H21.8103V22.282C21.8103 22.0392 21.6136 21.8425 21.3708 21.8425H19.8959C19.6531 21.8425 19.4564 22.0392 19.4564 22.282C19.4564 22.5248 19.6531 22.7215 19.8959 22.7215H20.9313V29.121H9.06866V22.7215H12.7403V25.2071C12.8195 26.0763 13.3858 26.2005 14.0881 25.8254L14.4213 26.1608C14.8071 26.4818 15.1928 26.4818 15.5786 26.1608L15.9118 25.8254C16.6143 26.2006 17.256 26.0909 17.2597 25.2071V22.7215H17.9809C18.2237 22.7215 18.4204 22.5248 18.4204 22.282C18.4204 22.0392 18.2237 21.8425 17.9809 21.8425H8.62918C8.38646 21.8425 8.18969 22.0392 8.18969 22.282V25.4818H5.42854V24.3775C5.42854 24.1347 5.23176 23.938 4.98905 23.938C4.74633 23.938 4.54956 24.1347 4.54956 24.3775V29.5605C4.54956 29.8033 4.74633 30 4.98905 30H25.0109C25.2537 30 25.4504 29.8033 25.4504 29.5605V21.764ZM21.0771 8.94492V9.86251C21.0771 10.2954 20.7249 10.6475 20.2921 10.6475H19.849V8.15982H20.2921C20.7249 8.15987 21.0771 8.51205 21.0771 8.94492ZM11.0299 2.25955C11.0299 1.4983 11.6493 0.878975 12.4105 0.878975H17.5894C18.3507 0.878975 18.97 1.49824 18.97 2.25955V5.01273C18.3919 4.87567 17.8107 4.76879 17.2267 4.6932V3.17017C17.2267 2.9274 17.03 2.73068 16.7872 2.73068H13.1799C12.9372 2.73068 12.7404 2.9274 12.7404 3.17017V4.71183C12.1714 4.78877 11.6011 4.89343 11.0299 5.02674V2.25955ZM16.3477 4.60307C15.4435 4.53399 14.5334 4.53826 13.6194 4.61532V3.60966H16.3477V4.60307ZM9.70803 10.6476C9.27516 10.6476 8.92299 10.2954 8.92299 9.86257V8.94498C8.92299 8.51205 9.27516 8.15993 9.70803 8.15993H10.151V10.6477H9.70803V10.6476ZM11.0299 11.913L11.0301 7.73879C12.0359 7.48652 13.0558 7.32971 14.0665 7.2744C14.3089 7.26109 14.4946 7.05389 14.4813 6.81153C14.4681 6.56922 14.2609 6.38552 14.0185 6.39671C12.8512 6.46064 11.6727 6.65126 10.5154 6.96336C10.2664 7.02611 10.0143 6.89515 9.97641 6.54432C9.95584 6.35399 10.1058 6.18171 10.2908 6.12798C13.4832 5.2033 16.655 5.20171 19.7186 6.12323C20.29 6.29469 19.9849 7.10563 19.4757 6.9708C18.3101 6.66392 17.1354 6.47277 15.9841 6.4028C15.7421 6.38774 15.5336 6.5725 15.5188 6.81481C15.5041 7.05711 15.6885 7.26537 15.9308 7.28014C16.9321 7.34102 17.9532 7.49977 18.97 7.75016V11.913C18.97 13.9166 17.34 15.5467 15.3363 15.5467H14.6636C12.66 15.5467 11.0299 13.9166 11.0299 11.913ZM14.6636 16.4257H15.3363C15.9742 16.4257 16.5811 16.2919 17.1318 16.0521V17.4443L15 19.8061L12.8682 17.4444V16.0521C13.4188 16.2919 14.0257 16.4257 14.6636 16.4257ZM16.3807 25.0709C15.9098 24.7368 15.2971 25.0966 15 25.4961C14.7041 25.0882 14.0997 24.73 13.6193 25.0708V22.7215H16.3807V25.0709ZM5.42854 26.3608H8.18969V29.121H5.42854V26.3608ZM21.8103 29.121V26.3608H24.5714V29.121H21.8103Z" fill="#283845"/>
</g>
<defs>
<clipPath id="clip0">
<rect width="30" height="30" fill="white"/>
</clipPath>
</defs>
</svg>
