<svg width="30" height="30" viewBox="0 0 30 30" fill="none" xmlns="http://www.w3.org/2000/svg">
<g clip-path="url(#clip0)">
<path d="M10.989 20.4702C10.7462 20.4702 10.5493 20.2733 10.5493 20.0305C10.5493 19.7877 10.7462 19.5908 10.989 19.5908C11.2318 19.5908 11.4287 19.7877 11.4287 20.0305C11.4287 20.2733 11.2318 20.4702 10.989 20.4702Z" fill="#283845"/>
<path d="M16.9388 22.0864C15.4301 21.5342 13.7144 22.3312 13.1623 23.8398C12.605 25.3643 13.3915 27.0584 14.9156 27.6161C15.2481 27.7377 15.5885 27.7953 15.9237 27.7953C17.1249 27.7953 18.2559 27.0544 18.692 25.8629C19.2499 24.3385 18.4634 22.6443 16.9388 22.0864ZM17.8663 25.5607C17.4751 26.6295 16.2868 27.181 15.2177 26.7903C14.1489 26.3992 13.5973 25.2109 13.9881 24.1418C14.375 23.0848 15.5802 22.5255 16.6366 22.9122C17.7058 23.3035 18.2575 24.4916 17.8663 25.5607Z" fill="#283845"/>
<path d="M28.7034 4.52154C28.9463 4.52154 29.1431 4.32469 29.1431 4.08188V0.439668C29.1431 0.196854 28.9463 0 28.7034 0H23.2879C23.045 0 22.8482 0.196854 22.8482 0.439668C22.8482 0.682482 23.045 0.879336 23.2879 0.879336H28.2638V1.81987H11.844V0.879336H21.3721C21.615 0.879336 21.8118 0.682482 21.8118 0.439668C21.8118 0.196854 21.615 0 21.3721 0H4.12071C3.87784 0 3.68104 0.196854 3.68104 0.439668V4.08188C3.68104 4.32469 3.87784 4.52154 4.12071 4.52154C4.46617 4.52154 4.79868 4.57724 5.11067 4.67895C4.52808 5.34032 4.19287 6.20301 4.19287 7.09571C4.19287 7.52201 4.2675 7.94257 4.4147 8.34554L5.2771 10.7098C4.91815 10.8494 4.52843 10.927 4.12071 10.9273C3.87784 10.9273 3.68104 11.1241 3.68104 11.3669V15.0073C3.68104 15.2501 3.87784 15.447 4.12071 15.447H7.00569L8.79262 20.3437L8.74109 20.4849C8.41978 20.2838 8.07719 20.1188 7.71731 19.9923C6.45148 19.5474 5.07754 19.6155 3.84882 20.1843C2.62004 20.7531 1.67932 21.7567 1.20003 23.01C0.703202 24.309 0.746817 25.7209 1.32278 26.9855C1.89881 28.2504 2.93484 29.2101 4.24001 29.6877C5.51698 30.1549 6.94256 30.0961 8.17832 29.5225C9.53079 28.8947 10.4976 27.6951 10.9648 26.2963C11.4293 27.7015 12.3916 28.8915 13.751 29.5226C14.9867 30.0963 16.4123 30.155 17.6893 29.6877C19.3726 29.0715 20.5962 27.6551 20.9625 25.8988C21.012 25.6611 20.8595 25.4282 20.6218 25.3787C20.3841 25.329 20.1512 25.4816 20.1016 25.7193C19.7978 27.1762 18.783 28.351 17.3871 28.862C16.3157 29.254 15.1558 29.2054 14.1212 28.7251C13.0866 28.2448 12.3009 27.3902 11.909 26.3192L11.4328 25.0135L12.7054 21.5257C12.8696 21.6465 13.0502 21.6446 13.247 21.5199C13.6253 21.2166 14.0481 20.9818 14.5038 20.8218C16.8713 19.9893 19.6138 21.5044 20.1017 23.983C20.1658 24.3088 20.4017 24.3677 20.6223 24.3231C20.8599 24.2732 21.0122 24.0402 20.9624 23.8026C20.3361 20.8158 17.1171 18.9707 14.2123 19.9922C13.8525 20.1186 13.5097 20.2835 13.1879 20.4851L13.1365 20.3441L14.9232 15.4471H17.1641C17.407 15.4471 17.6038 15.2503 17.6038 15.0074C17.6038 14.7646 17.407 14.5678 17.1641 14.5678H15.2441L15.5876 13.6262H28.2636V14.5677H19.0806C18.8377 14.5677 18.6409 14.7645 18.6409 15.0073C18.6409 15.2501 18.8377 15.447 19.0806 15.447H28.7034C28.9463 15.447 29.1431 15.2501 29.1431 15.0073V11.3669C29.1431 11.1241 28.9463 10.9272 28.7034 10.9272C26.9375 10.9272 25.5009 9.49055 25.5009 7.7235C25.5009 5.95791 26.9375 4.52154 28.7034 4.52154ZM10.9646 0.879336V1.81987H4.56038V0.879336H10.9646ZM5.24075 8.04399C5.1289 7.73774 5.07221 7.41872 5.07221 7.09565C5.07221 6.33684 5.39059 5.60617 5.93525 5.08737C6.77261 5.66562 7.32272 6.63172 7.32272 7.72467C7.32272 8.76393 6.82449 9.68899 6.05443 10.2745L5.24075 8.04399ZM4.56038 13.6261H11.2419L10.8986 14.5677H4.56038V13.6261ZM12.9155 18.3845L10.7619 17.5097L15.4402 4.67865C16.6043 5.32983 17.1599 6.7516 16.6884 8.04381L12.9155 18.3845ZM10.578 15.447L9.64259 18.0126L8.97681 18.2831L7.94178 15.447H10.578ZM7.80806 28.7249C6.77343 29.2052 5.61353 29.2539 4.54221 28.8618C3.45992 28.4659 2.60081 27.67 2.12304 26.6211C1.6455 25.5724 1.60933 24.4014 2.02138 23.3241C2.66605 21.6384 4.30742 20.5841 6.03203 20.5841C6.97738 20.5841 7.94582 20.9294 8.68182 21.5196C8.97705 21.691 9.20644 21.6269 9.36993 21.3272L10.4604 18.3363L12.6138 19.2111L10.0205 26.3188C9.62852 27.3901 8.8428 28.2446 7.80806 28.7249ZM24.6215 7.72467C24.6215 9.82693 26.2189 11.5631 28.2638 11.783V12.7467H15.9086L17.5145 8.34525C17.7214 7.77825 17.7772 7.19255 17.7043 6.63154C17.9671 6.87089 18.3162 7.01698 18.6987 7.01698C19.5137 7.01698 20.1768 6.3539 20.1768 5.53894C20.1768 4.72397 19.5137 4.06083 18.6987 4.06083C17.9746 4.06083 17.371 4.58439 17.2451 5.27267C16.8324 4.55596 16.1763 3.97442 15.341 3.66876C15.0805 3.60029 14.8925 3.6877 14.7769 3.93104L11.844 11.9749V11.3666C11.844 11.1238 11.6472 10.927 11.4043 10.927C11.1614 10.927 10.9646 11.1238 10.9646 11.3666V12.7467H4.56038V11.7829C6.58273 11.5648 8.202 9.77382 8.202 7.7235C8.202 5.67224 6.5849 3.8835 4.56038 3.66572V2.69921H28.2638V3.66572C26.2189 3.88567 24.6215 5.62165 24.6215 7.72467ZM18.0999 5.53894C18.0999 5.20877 18.3685 4.94017 18.6987 4.94017C19.0289 4.94017 19.2974 5.20877 19.2974 5.53894C19.2974 5.8691 19.0289 6.13765 18.6987 6.13765C18.3685 6.13765 18.0999 5.8691 18.0999 5.53894Z" fill="#283845"/>
<path d="M23.2187 4.38427C23.03 4.23132 22.7532 4.26022 22.6003 4.44875L17.7347 10.4468C17.5817 10.6354 17.6106 10.9123 17.7992 11.0653C18.0141 11.2151 18.2203 11.1936 18.4176 11.0008L23.2832 5.00274C23.4361 4.81415 23.4073 4.53722 23.2187 4.38427Z" fill="#283845"/>
<path d="M22.3194 8.4325C21.5044 8.4325 20.8413 9.09557 20.8413 9.91054C20.8413 10.7255 21.5044 11.3886 22.3194 11.3886C23.1344 11.3886 23.7975 10.7255 23.7975 9.91054C23.7975 9.09557 23.1344 8.4325 22.3194 8.4325ZM22.3194 10.5093C21.9893 10.5093 21.7206 10.2407 21.7206 9.9106C21.7206 9.5805 21.9893 9.31189 22.3194 9.31189C22.6496 9.31189 22.9181 9.5805 22.9181 9.9106C22.9181 10.2407 22.6496 10.5093 22.3194 10.5093Z" fill="#283845"/>
<path d="M4.99031 22.0864C3.46584 22.6443 2.67948 24.3384 3.23733 25.8628C3.78879 27.3699 5.50766 28.1668 7.01361 27.6158C8.52196 27.0638 9.3187 25.3479 8.76659 23.8395C8.20886 22.3151 6.51473 21.5286 4.99031 22.0864ZM6.71147 26.79C5.71113 27.2457 4.4528 26.6254 4.06308 25.5606C3.67606 24.5028 4.23461 23.2993 5.29251 22.9122C6.34584 22.5268 7.56817 23.0786 7.9409 24.1417C8.24603 25.0122 7.82594 26.2823 6.71147 26.79Z" fill="#283845"/>
<path d="M11.4043 3.64313C11.1614 3.64313 10.9646 3.83998 10.9646 4.0828V5.90138C10.9646 6.14419 11.1614 6.34105 11.4043 6.34105C11.6471 6.34105 11.8439 6.14419 11.8439 5.90138V4.0828C11.8439 3.83998 11.6471 3.64313 11.4043 3.64313Z" fill="#283845"/>
<path d="M11.4043 7.28503C11.1614 7.28503 10.9646 7.48189 10.9646 7.7247V9.54328C10.9646 9.7861 11.1614 9.98295 11.4043 9.98295C11.6471 9.98295 11.8439 9.7861 11.8439 9.54328V7.7247C11.8439 7.48189 11.6471 7.28503 11.4043 7.28503Z" fill="#283845"/>
</g>
<defs>
<clipPath id="clip0">
<rect width="30" height="30" fill="white"/>
</clipPath>
</defs>
</svg>
