<svg width="31" height="31" viewBox="0 0 31 31" fill="none" xmlns="http://www.w3.org/2000/svg">
<path d="M27.6094 12.3951L28.2464 12.8277C28.3273 12.8824 28.4217 12.9115 28.5186 12.9115C28.5486 12.9115 28.5796 12.9086 28.6096 12.9028C28.7356 12.8786 28.847 12.8054 28.9192 12.6988L30.0071 11.0951C30.1577 10.8737 30.0996 10.5724 29.8782 10.4223L15.7723 0.850553C15.6076 0.739147 15.393 0.739147 15.2283 0.850553L1.12137 10.4228C0.900007 10.5729 0.842366 10.8742 0.992522 11.0956L2.08043 12.6993C2.15212 12.8059 2.26401 12.879 2.38994 12.9033C2.51685 12.9275 2.64715 12.8999 2.75323 12.8282L3.39066 12.3951V17.2413C3.10682 17.3653 2.8748 17.5944 2.75323 17.8957C1.93899 19.9088 0.968788 22.5544 0.968788 23.7344C0.968788 25.4733 1.98113 26.8237 3.39066 27.078V29.0625H0.968788V30.0312H30.0313V29.0625H27.6094V12.3951ZM2.61033 11.7543L2.06638 10.9517L15.5 1.83626L28.9337 10.9517L28.3897 11.7538L15.7723 3.19202C15.6899 3.13632 15.595 3.10822 15.5 3.10822C15.4051 3.10822 15.3102 3.13632 15.2278 3.19202L2.61033 11.7543ZM1.93754 23.7344C1.93754 22.9473 2.5619 20.9516 3.65077 18.259C3.70648 18.1219 3.82612 18.1074 3.87504 18.1074C3.92396 18.1074 4.0436 18.1219 4.0993 18.259C5.18818 20.9516 5.81254 22.9473 5.81254 23.7344C5.81254 25.1376 4.99734 26.1562 3.87504 26.1562C2.75274 26.1562 1.93754 25.1376 1.93754 23.7344ZM4.35941 27.078C5.76894 26.8237 6.78129 25.4733 6.78129 23.7344C6.78129 22.5544 5.81109 19.9088 4.99685 17.8957C4.87527 17.5944 4.64326 17.3653 4.35941 17.2413V11.7378L15.5 4.17821L26.6407 11.7378V21.1662L26.5593 21.0441C26.3796 20.7743 25.933 20.7743 25.7533 21.0441L24.7845 22.4973C24.7317 22.5762 24.7032 22.6702 24.7032 22.7656V23.7344H23.7344V22.7656C23.7344 22.6702 23.7058 22.5762 23.653 22.4968L22.6843 21.0437C22.5046 20.7739 22.058 20.7739 21.8783 21.0437L20.9095 22.4968C20.8567 22.5762 20.8282 22.6702 20.8282 22.7656V23.7344H19.8594V22.7656C19.8594 22.6702 19.8308 22.5762 19.778 22.4968L18.8093 21.0437C18.6296 20.7739 18.183 20.7739 18.0033 21.0437L17.0345 22.4968C16.9817 22.5762 16.9532 22.6702 16.9532 22.7656V29.0625H14.0469V19.8594C14.0469 19.5915 13.8304 19.375 13.5625 19.375H8.23441C7.96655 19.375 7.75004 19.5915 7.75004 19.8594V29.0625H4.35941V27.078ZM18.8907 29.0625H17.9219V22.9124L18.4063 22.1858L18.8907 22.9124V29.0625ZM19.8594 24.7031H20.8282V25.6719H19.8594V24.7031ZM19.8594 26.6406H20.8282V29.0625H19.8594V26.6406ZM22.7657 29.0625H21.7969V22.9124L22.2813 22.1858L22.7657 22.9124V29.0625ZM23.7344 24.7031H24.7032V25.6719H23.7344V24.7031ZM23.7344 26.6406H24.7032V29.0625H23.7344V26.6406ZM13.0782 29.0625H8.71879V20.3437H13.0782V29.0625ZM25.6719 29.0625V22.9124L26.1563 22.1858L26.6407 22.9124V29.0625H25.6719Z" fill="#283845"/>
<path d="M14.0469 15.9844H16.9531C18.0217 15.9844 18.8906 15.1154 18.8906 14.0469V11.1406C18.8906 10.0721 18.0217 9.20312 16.9531 9.20312H14.0469C12.9783 9.20312 12.1094 10.0721 12.1094 11.1406V14.0469C12.1094 15.1154 12.9783 15.9844 14.0469 15.9844ZM13.0781 14.0469V13.0781H15.0156V15.0156H14.0469C13.5126 15.0156 13.0781 14.5811 13.0781 14.0469ZM16.9531 15.0156H15.9844V13.0781H17.9219V14.0469C17.9219 14.5811 17.4874 15.0156 16.9531 15.0156ZM17.9219 11.1406V12.1094H15.9844V10.1719H16.9531C17.4874 10.1719 17.9219 10.6064 17.9219 11.1406ZM14.0469 10.1719H15.0156V12.1094H13.0781V11.1406C13.0781 10.6064 13.5126 10.1719 14.0469 10.1719Z" fill="#283845"/>
<path d="M11.1406 24.2188H12.1094V25.1875H11.1406V24.2188Z" fill="black"/>
</svg>
