<svg width="47" height="47" viewBox="0 0 47 47" fill="none" xmlns="http://www.w3.org/2000/svg">
<circle r="23" transform="matrix(-1 0 0 1 23.5 23.5)" stroke="#FF975D"/>
<path d="M29 13.8141V11.2644C29 11.0434 28.7412 10.9214 28.5664 11.0566L13.4135 22.6704C13.2847 22.7687 13.1806 22.8945 13.1089 23.0383C13.0373 23.182 13 23.34 13 23.5C13 23.66 13.0373 23.818 13.1089 23.9617C13.1806 24.1055 13.2847 24.2313 13.4135 24.3296L28.5664 35.9434C28.7445 36.0786 29 35.9566 29 35.7356V33.1859C29 33.0243 28.9227 32.8692 28.795 32.7703L16.6942 23.5016L28.795 14.2297C28.9227 14.1308 29 13.9757 29 13.8141Z" fill="#FF975D"/>
</svg>
