<svg width="33" height="30" viewBox="0 0 33 30" fill="none" xmlns="http://www.w3.org/2000/svg">
<g clip-path="url(#clip0)">
<path d="M10.7158 23.1899C7.10045 20.8027 4.59258 16.9594 4.18272 16.307V8.19491C4.86747 7.89878 6.78257 7.09564 9.0584 6.35777C9.31035 6.27609 9.44177 6.02419 9.35186 5.79509C9.26201 5.56599 8.98474 5.44657 8.73298 5.52831C6.40493 6.28312 4.4464 7.10548 3.75288 7.40566C3.55804 7.26046 3.25588 7.0061 2.97732 6.64903C2.85853 6.49681 2.72763 6.27509 2.58912 6.0403C2.20414 5.38816 1.84049 4.7721 1.24868 4.70718C1.05378 4.68591 0.762966 4.71896 0.486075 4.99862C0.236061 5.25116 0.0800849 5.79169 0.0225282 6.60521C-0.0176905 7.17362 -0.0238135 8.11552 0.175476 9.37429C0.46964 11.2324 1.2483 14.0012 3.28521 16.653C3.50719 17.0195 6.12024 21.2437 10.1465 23.9023C10.2325 23.9591 10.3321 23.9864 10.4307 23.9864C10.5805 23.9864 10.7283 23.9234 10.823 23.8048C10.9802 23.6081 10.9322 23.3328 10.7158 23.1899ZM1.17959 5.6356C1.34846 5.80101 1.59383 6.21667 1.73556 6.45679C1.88883 6.71636 2.03353 6.96157 2.18719 7.15851C2.56127 7.6381 2.96881 7.96669 3.21405 8.14165V14.8923C1.94156 12.8245 1.38803 10.7894 1.14943 9.34288C0.814915 7.31484 1.01633 5.9721 1.17959 5.6356Z" fill="#283845"/>
<path d="M32.9775 6.60526C32.9199 5.79175 32.764 5.25122 32.514 4.99868C32.2371 4.71901 31.9463 4.68591 31.7513 4.70723C31.1595 4.77222 30.7959 5.38821 30.4109 6.04036C30.2723 6.27509 30.1414 6.49686 30.0227 6.64909C29.7443 7.00604 29.4421 7.26046 29.2472 7.40565C28.6238 7.13571 26.98 6.4446 24.9695 5.76151C21.5079 4.58554 18.6583 3.98923 16.5001 3.98923C14.9137 3.98923 12.9263 4.31817 10.5931 4.96692C10.3372 5.03806 10.1933 5.28421 10.2716 5.51671C10.3497 5.74927 10.6206 5.88011 10.8763 5.80897C13.1177 5.18583 15.0098 4.86983 16.5001 4.86983C20.8695 4.86983 27.4164 7.5904 28.8173 8.19515V16.3072C28.5331 16.7601 27.2399 18.7506 25.2755 20.7138C23.2594 22.7285 20.1005 25.1301 16.5001 25.1301C15.1268 25.1301 13.7139 24.7827 12.3006 24.0974C12.0645 23.9828 11.7711 24.0641 11.6453 24.2787C11.5194 24.4932 11.6087 24.76 11.8447 24.8744C13.3999 25.6284 14.9661 26.0107 16.5001 26.0107C18.2611 26.0107 20.0587 25.5081 21.8428 24.5167C23.2477 23.7361 24.6484 22.6513 26.006 21.2924C28.2183 19.078 29.5668 16.8971 29.7148 16.6532C31.7517 14.0013 32.5304 11.2324 32.8246 9.37429C33.0239 8.11558 33.0178 7.17368 32.9775 6.60526ZM31.8506 9.34288C31.612 10.7894 31.0585 12.8245 29.786 14.8923V8.14165C30.0312 7.96669 30.4388 7.63809 30.8128 7.1585C30.9665 6.96151 31.1112 6.71636 31.2645 6.45673C31.4062 6.21661 31.6516 5.80095 31.8204 5.63554C31.9837 5.9721 32.1851 7.31483 31.8506 9.34288Z" fill="#283845"/>
<path d="M25.4755 8.36666C25.4611 8.36203 24.0238 7.89738 22.2192 7.43976C19.7762 6.82019 17.852 6.50607 16.5 6.50607C13.2992 6.50607 7.7589 8.29066 7.52461 8.3666C7.27267 8.44828 7.14131 8.70018 7.23116 8.92922C7.32101 9.15826 7.59809 9.27768 7.85004 9.19605C7.90585 9.17795 13.4669 7.38668 16.5 7.38668C19.5331 7.38668 25.0942 9.17795 25.15 9.19605C25.2038 9.21346 25.2587 9.22172 25.3127 9.22172C25.5117 9.22172 25.6983 9.10934 25.7689 8.92916C25.8588 8.70018 25.7273 8.44834 25.4755 8.36666Z" fill="#283845"/>
<path d="M26.5222 12.2232C26.5063 12.2192 24.9086 11.8221 22.8931 11.4308C20.1722 10.9025 18.0213 10.6347 16.5 10.6347C14.9788 10.6347 12.8278 10.9025 10.107 11.4308C8.09154 11.8221 6.49382 12.2192 6.4779 12.2232C6.21995 12.2875 6.06823 12.5297 6.13894 12.7642C6.20971 12.9988 6.47622 13.1369 6.73416 13.0724C6.79662 13.0568 13.0207 11.5153 16.5 11.5153C19.9793 11.5153 26.2035 13.0568 26.2659 13.0724C26.3088 13.0831 26.3519 13.0882 26.3943 13.0882C26.607 13.0882 26.8021 12.9598 26.8611 12.7643C26.9318 12.5297 26.7801 12.2875 26.5222 12.2232Z" fill="#283845"/>
<path d="M21.1193 16.5351C21.3847 16.5051 21.5731 16.2851 21.5401 16.0438C21.5071 15.8026 21.2651 15.6308 20.9996 15.6613C19.1184 15.8741 17.6046 15.982 16.5 15.982C13.0707 15.982 6.75696 14.9339 6.69354 14.9233C6.43051 14.8795 6.17798 15.0376 6.12964 15.2768C6.0813 15.516 6.25539 15.7455 6.51842 15.7894C6.78068 15.8333 12.982 16.8626 16.5 16.8626C17.6444 16.8627 19.1985 16.7525 21.1193 16.5351Z" fill="#283845"/>
<path d="M26.8701 15.2768C26.8218 15.0376 26.5695 14.8793 26.3062 14.9233C26.2915 14.9257 24.8063 15.1731 22.9063 15.4257C22.6416 15.4609 22.4584 15.6845 22.4971 15.9251C22.5324 16.1441 22.7393 16.3017 22.9757 16.3017C22.9991 16.3017 23.0227 16.3002 23.0464 16.297C24.9651 16.042 26.4664 15.7919 26.4814 15.7894C26.7444 15.7455 26.9185 15.516 26.8701 15.2768Z" fill="#283845"/>
<path d="M8.25912 19.2653C8.42966 19.3448 12.4824 21.2143 16.5 21.2143C20.5177 21.2143 24.5703 19.3448 24.7409 19.2653C24.9788 19.1542 25.0726 18.889 24.9506 18.6727C24.8286 18.4563 24.5368 18.3708 24.2987 18.4818C24.259 18.5003 20.2793 20.3337 16.5 20.3337C12.7208 20.3337 8.74104 18.5003 8.70146 18.4818C8.46337 18.3707 8.17153 18.4562 8.04939 18.6725C7.92725 18.8889 8.02116 19.1542 8.25912 19.2653Z" fill="#283845"/>
</g>
<defs>
<clipPath id="clip0">
<rect width="33" height="30" fill="white"/>
</clipPath>
</defs>
</svg>
