<svg width="30" height="30" viewBox="0 0 30 30" fill="none" xmlns="http://www.w3.org/2000/svg">
<path d="M14.9999 5.45062C21.2324 5.45062 26.3028 10.1831 26.3028 16C26.3028 17.8678 25.7782 19.6966 24.7856 21.2886C24.6636 21.4844 24.7346 21.7355 24.9444 21.8494C25.1542 21.9633 25.4232 21.897 25.5452 21.7012C26.6158 19.984 27.1817 18.0126 27.1817 16C27.1817 9.73074 21.7169 4.63031 14.9999 4.63031C8.2828 4.63031 2.81812 9.73074 2.81812 16C2.81812 18.5669 3.7647 21.0851 5.48343 23.0906C5.5702 23.1919 5.698 23.2446 5.8269 23.2446C5.92317 23.2446 6.02009 23.2152 6.10112 23.1547C6.29067 23.0132 6.32144 22.7551 6.16979 22.5782C4.55208 20.6906 3.69702 18.4159 3.69702 16C3.69702 10.1831 8.76749 5.45062 14.9999 5.45062Z" fill="#283845"/>
<path d="M30 16C30 8.28037 23.271 2 15 2C6.72896 2 0 8.28037 0 16C0 23.7196 6.72896 30 15 30C15.2427 30 15.4395 29.8164 15.4395 29.5898V26.9595C15.4395 26.733 15.2427 26.5494 15 26.5494C12.272 26.5494 9.63598 25.626 7.5774 23.9494C7.39459 23.8005 7.11703 23.8181 6.95736 23.9888C6.79775 24.1595 6.81668 24.4186 6.99955 24.5675C9.10746 26.2843 11.7775 27.2683 14.5605 27.3623V29.1733C6.97641 28.9562 0.878906 23.1303 0.878906 16C0.878906 8.73269 7.21359 2.82031 15 2.82031C22.7864 2.82031 29.1211 8.73269 29.1211 16C29.1211 17.5734 28.8302 19.1081 28.2565 20.5617C27.6851 22.0096 26.8456 23.3452 25.7616 24.5314C25.6103 24.697 25.6239 24.944 25.7925 25.0943L26.4688 25.6969L22.3955 26.4975L23.0634 22.6627L23.751 23.2754C23.9266 23.4317 24.2047 23.4257 24.3724 23.2619C24.5399 23.0981 24.5335 22.8385 24.358 22.682L23.067 21.5317C22.949 21.4266 22.7784 21.3911 22.6238 21.4395C22.4692 21.4879 22.356 21.6123 22.3298 21.7626L21.4252 26.9564C21.402 27.0899 21.4507 27.2255 21.5555 27.3188C21.6604 27.4122 21.8078 27.4515 21.9495 27.4235L27.4663 26.3392C27.6259 26.3078 27.7537 26.1965 27.7984 26.0501C27.843 25.9037 27.7972 25.7462 27.6792 25.6411L26.6959 24.765C27.7198 23.5807 28.5214 22.2639 29.0813 20.8452C29.6909 19.3006 30 17.6704 30 16Z" fill="#283845"/>
<path d="M16.4667 15.5504C16.1026 15.4303 15.774 15.3169 15.4761 15.2084V10.8801C16.4878 10.9568 17.1019 11.4581 17.14 11.4901C17.3185 11.6425 17.5954 11.6315 17.7596 11.4655C17.9241 11.299 17.913 11.0395 17.7345 10.886C17.6883 10.8461 16.8468 10.1385 15.4761 10.0565V8.9859C15.4761 8.75939 15.2793 8.57574 15.0366 8.57574C14.794 8.57574 14.5972 8.75939 14.5972 8.9859V10.0926C14.3881 10.1217 14.171 10.1656 13.9457 10.2289C12.9008 10.5227 12.1191 11.3614 11.9058 12.4178C11.7137 13.3692 12.0317 14.2804 12.7356 14.7957C13.1879 15.1268 13.7674 15.4298 14.5972 15.7595V21.0086C13.6555 20.9937 13.1331 20.8779 12.1874 20.3005C11.9843 20.1765 11.7119 20.2296 11.5791 20.4192C11.4462 20.6088 11.5032 20.863 11.7062 20.987C12.8279 21.6719 13.5221 21.8113 14.5972 21.8286V23.0141C14.5972 23.2406 14.794 23.4243 15.0366 23.4243C15.2793 23.4243 15.4761 23.2406 15.4761 23.0141V21.8044C16.2464 21.7204 16.9429 21.4264 17.5094 20.9406C18.1173 20.4193 18.5275 19.713 18.6647 18.9516C18.941 17.4171 18.0783 16.0821 16.4667 15.5504ZM13.278 14.1501C12.8332 13.8245 12.6384 13.2189 12.7695 12.5696C12.8888 11.9785 13.3271 11.2595 14.1992 11.0143C14.3359 10.9759 14.4682 10.9469 14.5971 10.9246V14.8638C14.0261 14.6199 13.6076 14.3914 13.278 14.1501ZM17.7979 18.8155C17.6266 19.7663 16.8347 20.7866 15.476 20.9779V16.0865C15.6946 16.1634 15.9264 16.2422 16.1738 16.3238C17.6164 16.7998 17.9587 17.923 17.7979 18.8155Z" fill="#283845"/>
</svg>
