<svg width="47" height="47" viewBox="0 0 47 47" fill="none" xmlns="http://www.w3.org/2000/svg">
<circle cx="23.5" cy="23.5" r="23" stroke="#FF975D"/>
<path d="M18 13.8141V11.2644C18 11.0434 18.2588 10.9214 18.4336 11.0566L33.5865 22.6704C33.7153 22.7687 33.8194 22.8945 33.8911 23.0383C33.9627 23.182 34 23.34 34 23.5C34 23.66 33.9627 23.818 33.8911 23.9617C33.8194 24.1055 33.7153 24.2313 33.5865 24.3296L18.4336 35.9434C18.2555 36.0786 18 35.9566 18 35.7356V33.1859C18 33.0243 18.0773 32.8692 18.205 32.7703L30.3058 23.5016L18.205 14.2297C18.0773 14.1308 18 13.9757 18 13.8141Z" fill="#FF975D"/>
</svg>
