<svg width="30" height="30" viewBox="0 0 30 30" fill="none" xmlns="http://www.w3.org/2000/svg">
<g clip-path="url(#clip0)">
<path d="M12.2187 27.2041L10.5185 28.9042C10.2345 29.1884 9.76037 29.1884 9.47631 28.9042L1.09582 20.5237C0.808477 20.2364 0.808477 19.7688 1.09582 19.4815L9.82588 10.7515C9.99785 10.5795 9.99785 10.3008 9.82588 10.1287C9.65396 9.95689 9.37518 9.95689 9.20315 10.1287L0.473027 18.8587C-0.157676 19.4895 -0.157676 20.5158 0.473027 21.1465L8.85352 29.527C9.16893 29.8423 9.58313 30 9.99738 30C10.4116 30 10.8258 29.8423 11.1412 29.527L12.8414 27.8268C13.0133 27.6548 13.0133 27.3761 12.8414 27.204C12.6694 27.0322 12.3906 27.0322 12.2187 27.2041Z" fill="#283845"/>
<path d="M21.1785 18.2443L13.4642 25.9586C13.3038 26.119 13.2932 26.3837 13.4408 26.5561C13.6054 26.7485 13.9078 26.7604 14.0869 26.5814L21.8013 18.867C21.9733 18.695 21.9733 18.4163 21.8013 18.2443C21.6293 18.0724 21.3505 18.0724 21.1785 18.2443Z" fill="#283845"/>
<path d="M29.4912 0.50883C28.8768 -0.105408 27.8264 -0.165584 26.5331 0.339377C25.3572 0.798459 24.0798 1.68112 22.9361 2.82475C22.3176 3.44332 21.7763 4.10098 21.3362 4.76057L16.2572 4.50762C15.3899 4.46444 14.54 4.79186 13.9257 5.40604L10.4486 8.88322C10.2766 9.05526 10.2766 9.33399 10.4486 9.50602C10.6205 9.67793 10.8993 9.67793 11.0713 9.50602L14.5485 6.02883C14.9871 5.5902 15.5943 5.35664 16.2134 5.38717L20.8234 5.61674C20.6794 5.88838 20.5539 6.15768 20.4508 6.42176C20.3033 6.79975 20.2054 7.15617 20.1541 7.48781C19.9849 7.57084 19.8263 7.68205 19.6857 7.8225C19.353 8.15531 19.1697 8.59776 19.1697 9.06838C19.1697 9.53907 19.3529 9.98151 19.6857 10.3143C20.0292 10.6577 20.4805 10.8295 20.9316 10.8295C21.3828 10.8295 21.834 10.6577 22.1774 10.3143C22.5103 9.98151 22.6935 9.53907 22.6935 9.06838C22.6935 8.59781 22.5103 8.15531 22.1774 7.8225C21.8732 7.51834 21.4845 7.34912 21.0861 7.31438C21.1317 7.13379 21.1927 6.94289 21.2711 6.74198C21.4078 6.39199 21.588 6.03059 21.805 5.66561L23.1208 5.73112C23.7442 5.76217 24.2378 6.25576 24.2689 6.87914L24.3477 8.462L24.3478 8.46334L24.6128 13.7866C24.6437 14.4061 24.4099 15.0129 23.9712 15.4515L22.4239 16.9988C22.2636 17.1591 22.253 17.4239 22.4006 17.5962C22.5652 17.7886 22.8676 17.8005 23.0467 17.6215L24.594 16.0742C25.2081 15.46 25.5356 14.6103 25.4924 13.7428L25.2394 8.66332C25.9071 8.21836 26.5574 7.68176 27.1753 7.06389C28.3189 5.9202 29.2016 4.64274 29.6607 3.46682C30.1655 2.1736 30.1054 1.12313 29.4912 0.50883ZM20.3084 9.69158C20.142 9.52518 20.0503 9.30387 20.0503 9.0685C20.0503 8.9001 20.098 8.7392 20.1857 8.6001C20.2656 8.90578 20.4094 9.16905 20.6203 9.37981C20.8278 9.58746 21.0914 9.73389 21.3989 9.81487C21.0587 10.0278 20.604 9.98719 20.3084 9.69158ZM21.5547 8.44535C21.7042 8.59483 21.7928 8.78871 21.8094 8.99713C21.5667 8.97006 21.3761 8.89032 21.243 8.75707C21.1089 8.62295 21.0288 8.43029 21.0014 8.191C21.2032 8.20694 21.4006 8.29131 21.5547 8.44535ZM26.5525 6.44121C26.1189 6.87487 25.6557 7.27418 25.1875 7.62205L25.1484 6.83543C25.0947 5.75819 24.2419 4.90535 23.1646 4.85162L22.376 4.81237C22.7206 4.34865 23.118 3.88846 23.559 3.44754C25.806 1.20053 28.1606 0.423869 28.8685 1.13156C29.5764 1.83961 28.7994 4.19438 26.5525 6.44121Z" fill="#283845"/>
<path d="M16.0082 11.2395C15.8361 11.0676 15.5573 11.0675 15.3854 11.2395L14.2546 12.3703C14.2544 12.3705 14.2542 12.3707 14.254 12.3708C14.082 12.5429 14.082 12.8216 14.254 12.9936L17.0707 15.8104C17.241 15.9806 17.5242 15.9828 17.6951 15.8119L18.8265 14.6805C18.9984 14.5085 18.9984 14.2298 18.8265 14.0578C18.6544 13.8859 18.3757 13.8859 18.2037 14.0578L17.3836 14.8778L16.5973 14.0914L17.4173 13.2714C17.5893 13.0994 17.5893 12.8207 17.4173 12.6486C17.2452 12.4767 16.9665 12.4767 16.7945 12.6486L15.9745 13.4687L15.1881 12.6822L16.0081 11.8622C16.1801 11.6903 16.1801 11.4115 16.0082 11.2395Z" fill="#283845"/>
<path d="M11.8468 14.7814C11.6748 14.9534 11.6748 15.2322 11.8468 15.4042L14.6635 18.2208C14.8332 18.3904 15.1165 18.3904 15.2862 18.2208L16.6025 16.9046C16.7745 16.7326 16.7745 16.4538 16.6025 16.2818C16.4305 16.1099 16.1518 16.1099 15.9797 16.2818L14.9748 17.2867L12.4695 14.7814C12.2975 14.6095 12.0188 14.6095 11.8468 14.7814Z" fill="#283845"/>
<path d="M9.68871 16.7992C9.44027 17.0477 9.38936 17.4202 9.56197 17.7263L11.5201 21.1971C11.6473 21.4225 11.9511 21.4893 12.1614 21.3378C12.3411 21.2084 12.3958 20.957 12.2872 20.7644L11.7787 19.8632L12.7527 18.8893L13.6538 19.3978C13.8658 19.5173 14.1343 19.4424 14.2537 19.2306C14.3732 19.0187 14.2983 18.7502 14.0866 18.6307L10.6156 16.6725C10.3096 16.4999 9.93709 16.5509 9.68871 16.7992ZM11.3295 19.0669L10.5179 17.6285L11.9565 18.44L11.3295 19.0669Z" fill="#283845"/>
<path d="M9.7244 22.5384C9.33574 22.8823 9.01951 22.7704 8.94867 22.7383C8.72373 22.6154 8.43346 22.7159 8.33209 22.9505C8.23225 23.1817 8.35231 23.4571 8.58961 23.5414C8.70147 23.5901 8.91234 23.6621 9.18065 23.6621C9.52272 23.6621 9.85037 23.5395 10.1271 23.3421C10.4358 23.1219 10.703 22.8182 10.8301 22.4568C10.8773 22.3226 10.9048 22.1813 10.9091 22.0389C10.9211 21.6445 10.7538 21.2346 10.4616 20.9423C10.2223 20.703 9.93111 20.5609 9.61945 20.5314C9.20162 20.4918 8.7668 20.6505 8.32652 21.0033C7.91613 21.3321 7.67051 21.1969 7.56053 21.0869C7.49561 21.022 7.1908 20.6797 7.56053 20.31C7.82426 20.0463 8.09731 20.1226 8.12748 20.1322C8.24824 20.1545 8.36414 20.1492 8.47254 20.0831C8.57022 20.0237 8.64252 19.9266 8.67094 19.8158C8.73375 19.5705 8.56951 19.3159 8.32096 19.2717C7.99266 19.1898 7.42049 19.2045 6.93774 19.6873C6.19588 20.4292 6.53127 21.3032 6.93774 21.7097C7.3309 22.1027 8.07457 22.3335 8.87713 21.6906C9.48076 21.2069 9.74086 21.4671 9.83883 21.5651C9.96721 21.6934 10.0504 21.8833 10.0241 22.0663C9.99674 22.2566 9.86373 22.4151 9.7244 22.5384Z" fill="#283845"/>
</g>
<defs>
<clipPath id="clip0">
<rect width="30" height="30" fill="white"/>
</clipPath>
</defs>
</svg>
