<svg width="26" height="25" viewBox="0 0 26 25" fill="none" xmlns="http://www.w3.org/2000/svg">
<g clip-path="url(#clip0)">
<path d="M9.35458 16.4838C11.3485 16.4838 13.3425 15.7541 14.8607 14.2946C17.8964 11.3751 17.8964 6.62529 14.8607 3.70629C13.39 2.29215 11.4345 1.51331 9.35458 1.51331C7.27467 1.51331 5.31941 2.2921 3.84887 3.70634C2.59268 4.91372 1.82175 6.44728 1.6196 8.14116C1.59556 8.34224 1.74563 8.52396 1.9548 8.54708C2.16346 8.5699 2.35291 8.42594 2.37695 8.22477C2.55929 6.69703 3.25464 5.31387 4.38785 4.22469C5.71443 2.94889 7.4783 2.24632 9.35458 2.24632C11.2309 2.24632 12.9949 2.94889 14.3216 4.22464C17.0601 6.85784 17.0601 11.1426 14.3216 13.7763C11.5826 16.4095 7.12628 16.4095 4.3879 13.7763C3.24473 12.6771 2.54785 11.2816 2.37253 9.74049C2.34966 9.53927 2.16214 9.39316 1.95221 9.41603C1.74298 9.43802 1.59185 9.61896 1.61477 9.82019C1.80635 11.5045 2.59979 13.0936 3.84882 14.2946C5.36672 15.7541 7.3606 16.4838 9.35458 16.4838Z" fill="white"/>
<path d="M2.73996 2.64012C4.50693 0.941159 6.85608 0.0055542 9.35469 0.0055542C11.8534 0.0055542 14.2024 0.941159 15.969 2.64012C17.7359 4.33913 18.709 6.59793 18.709 9.00044C18.709 11.0236 18.0189 12.9447 16.7458 14.5154L18.3284 16.0371L18.5797 15.7956C19.036 15.3568 19.7786 15.3568 20.2349 15.7956C20.5791 16.1387 20.6506 16.8265 20.3841 17.2124L22.2639 19.02C22.4128 19.1631 22.4128 19.3951 22.2639 19.5383C22.115 19.6813 21.8737 19.6814 21.7249 19.5382L19.8616 17.7466L18.4507 19.1033L23.5365 23.9933C24.3948 24.8189 25.8369 23.492 24.9473 22.6367L22.8993 20.6675C22.7505 20.5243 22.7505 20.2923 22.8993 20.1492C23.0482 20.0061 23.2895 20.0061 23.4384 20.1492L25.4864 22.1184C27.0914 23.6618 24.5625 26.0164 22.9974 24.5117L17.8951 19.6057C17.494 19.8617 16.7782 19.7933 16.4216 19.4622C15.9653 19.0234 15.9653 18.3095 16.4216 17.8707L16.6729 17.629L15.0889 16.1059C13.6878 17.1508 11.996 17.7989 10.2201 17.9563C10.0098 17.975 9.82497 17.8266 9.80556 17.625C9.78625 17.4235 9.94048 17.2451 10.1501 17.2265C14.5312 16.8382 17.9467 13.2272 17.9467 9.00049C17.9467 6.79373 17.0529 4.719 15.43 3.15842C13.8073 1.59789 11.6497 0.738567 9.35469 0.738567C7.05966 0.738567 4.90195 1.59799 3.27899 3.15847C1.65604 4.71896 0.762291 6.79373 0.762291 9.00049C0.762291 11.2073 1.65604 13.2818 3.27894 14.8421C4.69471 16.2034 6.56982 17.0502 8.55882 17.2265C8.76845 17.2451 8.92268 17.4235 8.90337 17.625C8.88513 17.8152 8.719 17.958 8.52426 17.958C8.51258 17.958 8.50073 17.9574 8.48884 17.9564C6.32294 17.7644 4.28129 16.8425 2.73996 15.3605C0.972986 13.6618 -4.3869e-05 11.4031 -4.3869e-05 9.00054C7.62939e-06 6.59793 0.973089 4.33908 2.73996 2.64012ZM16.9583 18.9415C17.1049 19.0825 17.3932 19.0836 17.5382 18.9442L19.6962 16.8691C19.846 16.7252 19.8366 16.4567 19.6936 16.3116C19.5342 16.1608 19.2771 16.1616 19.1188 16.3139L16.9607 18.389C16.8023 18.5412 16.8015 18.7884 16.9583 18.9415ZM17.212 17.1106L17.7895 16.5554L16.2517 15.0768C16.0675 15.2696 15.8748 15.4551 15.6742 15.6321L17.212 17.1106Z" fill="white"/>
</g>
<defs>
<clipPath id="clip0">
<rect width="26" height="25" fill="white" transform="matrix(-1 0 0 1 26 0)"/>
</clipPath>
</defs>
</svg>
