<svg width="34" height="33" viewBox="0 0 34 33" fill="none" xmlns="http://www.w3.org/2000/svg">
<path d="M31.348 17.0497H30.8873C30.8215 16.5953 30.6103 16.1572 30.2524 15.8084C29.9447 15.5086 29.5578 15.3043 29.1377 15.2153C28.9982 14.8514 28.7796 14.5194 28.4949 14.242C27.9655 13.7262 27.2616 13.4422 26.5128 13.4422C26.4077 13.4422 26.3037 13.4484 26.2006 13.4594C25.8154 12.3971 24.7742 11.6338 23.553 11.6338C22.4495 11.6338 21.4933 12.2573 21.035 13.1613C20.6743 12.4374 19.9129 11.937 19.0338 11.937C17.8171 11.937 16.8256 12.8953 16.8105 14.0788C15.988 14.263 15.3396 14.894 15.1456 15.6943H10.4269V11.6015C10.4269 11.3345 10.2039 11.1181 9.92881 11.1181C9.65375 11.1181 9.43076 11.3345 9.43076 11.6015V25.2589H9.16049V5.40549H9.43076V9.41009C9.43076 9.67712 9.65375 9.89349 9.92881 9.89349C10.2039 9.89349 10.4269 9.67712 10.4269 9.41009V0.805664C10.4269 0.361389 10.0545 0 9.59677 0H8.99447C8.53673 0 8.16439 0.361389 8.16439 0.805664V15.6943H7.80919C7.35145 15.6943 6.97911 16.0557 6.97911 16.5V19.0844C6.97911 19.5287 7.35145 19.89 7.80919 19.89H8.16439V25.2589H8.07986C7.62212 25.2589 7.24978 25.6203 7.24978 26.0645V27.7173H5.47667C5.01893 27.7173 4.64659 28.0787 4.64659 28.523V29.4245H3.27331C2.47278 29.4245 1.82153 30.0566 1.82153 30.8335C1.82153 31.3093 2.06597 31.7303 2.43904 31.9856L2.24414 32.1748C2.04964 32.3637 2.04964 32.6697 2.24414 32.8585C2.34136 32.9528 2.46879 33 2.59629 33C2.72373 33 2.85123 32.9528 2.94845 32.8585L3.58303 32.2425H3.87501C3.74101 32.4309 3.76 32.6908 3.93272 32.8585C4.02994 32.9528 4.15744 33 4.28487 33C4.41237 33 4.53981 32.9528 4.63703 32.8585L5.2716 32.2425H5.56352C5.42958 32.4309 5.44858 32.6908 5.62123 32.8584C5.71852 32.9528 5.84595 33 5.97345 33C6.10088 33 6.22838 32.9528 6.3256 32.8585L6.96018 32.2425H7.2521C7.11816 32.4309 7.13715 32.6908 7.30981 32.8584C7.4071 32.9528 7.53453 33 7.66203 33C7.78946 33 7.91696 32.9528 8.01418 32.8585L8.64876 32.2425H8.90529V32.5166C8.90529 32.7836 9.12828 33 9.40333 33C9.67839 33 9.90138 32.7836 9.90138 32.5166V32.2425H10.1579L10.7925 32.8585C10.8898 32.9528 11.0172 33 11.1446 33C11.2721 33 11.3996 32.9528 11.4969 32.8584C11.6695 32.6908 11.6885 32.4309 11.5546 32.2425H11.8466L12.4811 32.8585C12.5783 32.9528 12.7058 33 12.8333 33C12.9607 33 13.0882 32.9528 13.1854 32.8585C13.3582 32.6908 13.3771 32.4309 13.2431 32.2425H13.5351L14.1696 32.8585C14.2669 32.9528 14.3944 33 14.5218 33C14.6492 33 14.7767 32.9528 14.8739 32.8585C15.0467 32.6908 15.0657 32.4309 14.9317 32.2425H15.2236L15.8582 32.8585C15.9554 32.9528 16.0829 33 16.2103 33C16.3378 33 16.4652 32.9528 16.5625 32.8585C16.757 32.6696 16.757 32.3636 16.5625 32.1748L16.2729 31.8937C16.4061 31.7806 16.5178 31.6444 16.6014 31.4915H22.7107C22.9858 31.4915 23.2088 31.275 23.2088 31.0081C23.2088 30.741 22.9858 30.5247 22.7107 30.5247H16.7344C16.5888 29.8959 16.0093 29.4245 15.3181 29.4245H13.9447V28.523C13.9447 28.0787 13.5724 27.7174 13.1146 27.7174H11.3415V26.0646C11.3415 25.6204 10.9692 25.2589 10.5115 25.2589H10.4269V19.8901H29.7068L28.4353 26.5804L22.2269 23.3703C22.1686 22.0013 21.0034 20.9047 19.5787 20.9047C18.1169 20.9047 16.9276 22.059 16.9276 23.4778C16.9276 24.8966 18.1169 26.0509 19.5787 26.0509C20.0766 26.0509 20.5424 25.9161 20.9408 25.6833L27.92 29.292L27.731 30.2866C27.7081 30.4067 27.5622 30.5247 27.4363 30.5247H25.367C25.0919 30.5247 24.8689 30.741 24.8689 31.0081C24.8689 31.275 25.0919 31.4915 25.367 31.4915H27.4362C28.041 31.4915 28.6008 31.0392 28.7105 30.4619L28.886 29.5384C29.3325 29.4943 29.7297 29.2392 29.9436 28.8495C30.2947 28.2099 30.0443 27.4124 29.3854 27.0717L29.3575 27.0573L30.7197 19.8901H31.348C31.8057 19.8901 32.1781 19.5287 32.1781 19.0844V17.8555C32.1781 17.4112 31.8057 17.0497 31.348 17.0497ZM9.16055 0.966797H9.43083V4.43869H9.16055V0.966797ZM8.24594 26.2256H10.3455V27.7172H8.24594V26.2256ZM7.97533 16.6611H8.16452V17.5679H7.97533V16.6611ZM7.97533 18.9232V18.5347H8.16452V18.9232H7.97533ZM12.9488 28.684V29.4244H12.9487H12.3514C12.0763 29.4244 11.8533 29.6408 11.8533 29.9078C11.8533 30.1748 12.0763 30.3912 12.3514 30.3912H15.3182C15.5695 30.3912 15.7739 30.5896 15.7739 30.8335C15.7739 31.0773 15.5694 31.2757 15.3182 31.2757H3.27331C3.02203 31.2757 2.81763 31.0773 2.81763 30.8335C2.81763 30.5896 3.02209 30.3912 3.27331 30.3912H9.76153C10.0366 30.3912 10.2596 30.1748 10.2596 29.9078C10.2596 29.6408 10.0366 29.4244 9.76153 29.4244H5.64268V28.684H12.9488ZM19.5787 25.084C18.6661 25.084 17.9237 24.3634 17.9237 23.4777C17.9237 22.592 18.6661 21.8715 19.5787 21.8715C20.2289 21.8715 20.7922 22.2376 21.0626 22.7682L20.5162 22.4857C20.3208 22.3846 20.1009 22.3313 19.8804 22.3313C19.3786 22.3313 18.9204 22.5982 18.6847 23.0277C18.5145 23.3375 18.4789 23.693 18.5845 24.0288C18.6899 24.3646 18.9238 24.6404 19.243 24.8054L19.7612 25.0734C19.7012 25.0798 19.6405 25.084 19.5787 25.084ZM29.0646 28.3948C29.0023 28.5085 28.8809 28.579 28.748 28.579C28.6894 28.579 28.6331 28.5652 28.5805 28.538L19.7114 23.9521C19.627 23.9085 19.5651 23.8355 19.5373 23.7468C19.5094 23.6581 19.5188 23.5641 19.5638 23.4823C19.6261 23.3686 19.7475 23.2981 19.8804 23.2981C19.9389 23.2981 19.9953 23.3118 20.0479 23.339L28.9171 27.9248C29.0912 28.0149 29.1574 28.2258 29.0646 28.3948ZM26.5129 14.409C26.9949 14.409 27.4482 14.5921 27.7893 14.9244C28.0265 15.1555 28.1926 15.4452 28.2696 15.7621C28.3203 15.9707 28.5064 16.122 28.7269 16.1338C29.0364 16.1505 29.3275 16.2773 29.5467 16.4908C29.7111 16.6509 29.82 16.8448 29.8741 17.0498H27.8359C27.6117 16.3219 26.9188 15.7899 26.1003 15.7899H25.796C25.7047 15.4459 25.5171 15.14 25.2646 14.8984C25.6023 14.5828 26.0439 14.409 26.5129 14.409ZM23.5531 12.6006C24.3242 12.6006 24.9839 13.0733 25.2445 13.7371C24.9842 13.8661 24.7433 14.0351 24.5309 14.2421C24.4765 14.2951 24.4258 14.3502 24.3769 14.4064C24.2186 14.3664 24.0527 14.345 23.8818 14.345C23.4671 14.345 23.0693 14.4733 22.7404 14.7008C22.502 14.3701 22.1733 14.1116 21.7925 13.9544C21.9837 13.1788 22.7003 12.6006 23.5531 12.6006ZM17.1691 14.9992C17.1793 14.998 17.2692 14.9911 17.3044 14.991C17.3187 14.9919 17.353 14.9928 17.3557 14.9929C17.6412 15.0036 17.9134 15.1098 18.1267 15.2969C18.3309 15.476 18.6458 15.4606 18.8302 15.2624C19.0146 15.0643 18.9986 14.7587 18.7946 14.5796C18.512 14.3317 18.1723 14.1611 17.8078 14.0793C17.8225 13.4289 18.3663 12.9038 19.0339 12.9038C19.7107 12.9038 20.2614 13.4432 20.2614 14.1061C20.2614 14.146 20.2593 14.1857 20.255 14.2275C20.2403 14.3718 20.2931 14.5148 20.3988 14.6173C20.5045 14.7197 20.652 14.7709 20.8007 14.756C20.8431 14.7519 20.8833 14.7498 20.9238 14.7498C21.4355 14.7498 21.8832 15.0575 22.0646 15.5145C21.9619 15.7474 21.9047 16.0039 21.9047 16.2731C21.9047 16.5402 22.1277 16.7565 22.4028 16.7565C22.6778 16.7565 22.9008 16.5402 22.9008 16.2731C22.9008 16.0874 22.9559 15.9146 23.0495 15.7674C23.0548 15.759 23.0924 15.7041 23.1069 15.6857C23.2913 15.4523 23.5776 15.3116 23.8818 15.3116C24.4227 15.3116 24.8628 15.7429 24.8628 16.2731C24.8628 16.5401 25.0858 16.7565 25.3608 16.7565H26.1002C26.3539 16.7565 26.5803 16.8709 26.73 17.0496H19.8184V16.5C19.8184 16.0557 19.4461 15.6943 18.9883 15.6943H16.1945C16.3696 15.3197 16.7344 15.0476 17.1691 14.9992ZM10.427 16.6611H18.8224V17.5679H10.427V16.6611ZM31.1821 18.9232H10.427V18.5347H18.9885C19.3417 18.5347 19.6433 18.3191 19.763 18.0166H31.1821V18.9232Z" fill="#283845"/>
<path d="M23.4412 2.91914C21.6298 2.91914 20.156 4.36895 20.156 6.15108C20.156 7.93315 21.6297 9.38289 23.4412 9.38289C25.2527 9.38289 26.7266 7.93315 26.7266 6.15108C26.7266 4.36902 25.2527 2.91914 23.4412 2.91914ZM23.4412 8.41616C22.179 8.41616 21.1521 7.40005 21.1521 6.15115C21.1521 4.90217 22.1789 3.88601 23.4412 3.88601C24.7035 3.88601 25.7305 4.90217 25.7305 6.15115C25.7305 7.40005 24.7035 8.41616 23.4412 8.41616Z" fill="#283845"/>
<path d="M28.3556 8.59604C27.2677 8.59604 26.3826 9.46532 26.3826 10.5339C26.3826 11.6024 27.2677 12.4717 28.3556 12.4717C29.4434 12.4717 30.3284 11.6024 30.3284 10.5339C30.3284 9.46538 29.4434 8.59604 28.3556 8.59604ZM28.3556 11.5049C27.8169 11.5049 27.3787 11.0692 27.3787 10.5339C27.3787 9.99847 27.8169 9.56284 28.3556 9.56284C28.8941 9.56284 29.3323 9.99847 29.3323 10.5339C29.3323 11.0693 28.8941 11.5049 28.3556 11.5049Z" fill="#283845"/>
</svg>
