<svg width="31" height="30" viewBox="0 0 31 30" fill="none" xmlns="http://www.w3.org/2000/svg">
<g clip-path="url(#clip0)">
<path d="M29.1639 8.21486C29.4147 8.21486 29.618 8.01818 29.618 7.77544V2.86431C29.618 1.28492 28.2902 0 26.6582 0H5.95949C4.32751 0 2.99976 1.28492 2.99976 2.86431V27.1356C2.99976 28.715 4.32751 30 5.95955 30H26.6583C28.2903 30 29.6181 28.715 29.6181 27.1356V9.64807C29.6181 9.40534 29.4148 9.20865 29.164 9.20865C28.9132 9.20865 28.7099 9.40534 28.7099 9.64807V22.3714H24.6715C24.4208 22.3714 24.2175 22.5681 24.2175 22.8109C24.2175 23.0536 24.4208 23.2503 24.6715 23.2503H28.7099V27.1155H3.90789V23.2503H7.9463C8.19707 23.2503 8.40037 23.0536 8.40037 22.8109C8.40037 22.5681 8.19707 22.3714 7.9463 22.3714H3.90789V6.42777H6.16103C6.4118 6.42777 6.6151 6.23109 6.6151 5.98835C6.6151 5.74562 6.4118 5.54893 6.16103 5.54893H3.90789V2.86431C3.90789 1.76951 4.82825 0.878839 5.95949 0.878839H26.6582C27.7895 0.878839 28.7099 1.76951 28.7099 2.86431V5.54893H8.09608C7.84532 5.54893 7.64202 5.74562 7.64202 5.98835C7.64202 6.23109 7.84532 6.42777 8.09608 6.42777H28.7098V7.77544C28.7099 8.01818 28.9131 8.21486 29.1639 8.21486ZM26.6582 29.1212H5.95949C5.14586 29.1212 4.44133 28.6604 4.10986 27.9944H28.5078C28.1764 28.6604 27.4718 29.1212 26.6582 29.1212Z" fill="#283845"/>
<path d="M17.8246 3.25701C17.8246 2.43213 17.1311 1.76105 16.2787 1.76105C15.4264 1.76105 14.7329 2.43213 14.7329 3.25701C14.7329 4.08189 15.4264 4.75297 16.2787 4.75297C17.1311 4.75297 17.8246 4.08189 17.8246 3.25701ZM15.641 3.25701C15.641 2.91672 15.927 2.63989 16.2787 2.63989C16.6303 2.63989 16.9164 2.91678 16.9164 3.25701C16.9164 3.59724 16.6303 3.87413 16.2787 3.87413C15.927 3.87413 15.641 3.59724 15.641 3.25701Z" fill="#283845"/>
<path d="M13.6053 3.25701C13.6053 2.43213 12.9119 1.76105 12.0595 1.76105C11.2071 1.76105 10.5137 2.43213 10.5137 3.25701C10.5137 4.08189 11.2071 4.75297 12.0595 4.75297C12.9119 4.75297 13.6053 4.08189 13.6053 3.25701ZM11.4217 3.25701C11.4217 2.91672 11.7078 2.63989 12.0594 2.63989C12.4111 2.63989 12.6971 2.91678 12.6971 3.25701C12.6971 3.59724 12.4111 3.87413 12.0594 3.87413C11.7078 3.87413 11.4217 3.59724 11.4217 3.25701Z" fill="#283845"/>
<path d="M9.38615 3.25701C9.38615 2.43213 8.69269 1.76105 7.84032 1.76105C6.98795 1.76105 6.29443 2.43213 6.29443 3.25701C6.29443 4.08189 6.98788 4.75297 7.84026 4.75297C8.69263 4.75297 9.38615 4.08189 9.38615 3.25701ZM7.20257 3.25701C7.20257 2.91672 7.48863 2.63989 7.84026 2.63989C8.19189 2.63989 8.47795 2.91678 8.47795 3.25701C8.47795 3.59724 8.19189 3.87413 7.84026 3.87413C7.48863 3.87413 7.20257 3.59724 7.20257 3.25701Z" fill="#283845"/>
<path d="M22.0433 3.25701C22.0433 2.43213 21.3499 1.76105 20.4975 1.76105C19.6451 1.76105 18.9517 2.43213 18.9517 3.25701C18.9517 4.08189 19.6451 4.75297 20.4975 4.75297C21.3499 4.75297 22.0433 4.08189 22.0433 3.25701ZM19.8597 3.25701C19.8597 2.91672 20.1458 2.63989 20.4974 2.63989C20.849 2.63989 21.1351 2.91678 21.1351 3.25701C21.1351 3.59724 20.849 3.87413 20.4974 3.87413C20.1458 3.87413 19.8597 3.59724 19.8597 3.25701Z" fill="#283845"/>
<path d="M26.2626 3.25701C26.2626 2.43213 25.5691 1.76105 24.7167 1.76105C23.8644 1.76105 23.1709 2.43213 23.1709 3.25701C23.1709 4.08189 23.8644 4.75297 24.7167 4.75297C25.5691 4.75297 26.2626 4.08189 26.2626 3.25701ZM24.079 3.25701C24.079 2.91672 24.365 2.63989 24.7167 2.63989C25.0683 2.63989 25.3544 2.91678 25.3544 3.25701C25.3544 3.59724 25.0683 3.87413 24.7167 3.87413C24.365 3.87413 24.079 3.59724 24.079 3.25701Z" fill="#283845"/>
<path d="M7.5188 17.0893C7.26961 17.1167 7.09052 17.3344 7.1188 17.5755C7.64697 22.083 11.5849 25.482 16.2786 25.482C21.3623 25.482 25.4982 21.4796 25.4982 16.5598C25.4982 11.6401 21.3623 7.63754 16.2787 7.63754C13.988 7.63754 11.7918 8.45609 10.0948 9.94233C8.40998 11.4178 7.35049 13.4295 7.11147 15.6069C7.08495 15.8482 7.26561 16.0647 7.51504 16.0903C7.76412 16.1158 7.98806 15.9411 8.01452 15.6997C8.22999 13.7376 9.18516 11.9243 10.7041 10.594C12.2339 9.2542 14.2136 8.51638 16.2787 8.51638C20.8616 8.51638 24.5901 12.1246 24.5901 16.5598C24.5901 20.9949 20.8616 24.6032 16.2787 24.6032C12.0472 24.6032 8.49728 21.5394 8.02118 17.4764C7.9929 17.2353 7.76787 17.0622 7.5188 17.0893Z" fill="#283845"/>
<path d="M15.9921 9.40054C12.1549 9.54156 9.0313 12.5607 8.8811 16.2739C8.8016 18.24 9.53411 20.104 10.9438 21.5227C12.3545 22.9424 14.2491 23.7243 16.2787 23.7243C18.977 23.7243 21.4639 22.2985 22.7691 20.0035C22.8827 19.8037 22.8976 19.5676 22.8099 19.3558C22.7221 19.1439 22.5428 18.9832 22.3179 18.9145L21.7518 18.742C21.6319 18.7054 21.5514 18.5992 21.5514 18.4776V14.6418C21.5514 14.5202 21.6319 14.414 21.7517 14.3774L22.3179 14.2049C22.5427 14.1364 22.7219 13.9756 22.8096 13.7639C22.8975 13.5517 22.8825 13.3152 22.7686 13.115C21.4061 10.7203 18.8098 9.29683 15.9921 9.40054ZM21.8985 19.7081C20.7344 21.6472 18.5951 22.8455 16.2786 22.8455C14.4984 22.8455 12.8363 22.1594 11.5983 20.9136C10.6211 19.9301 10.0151 18.7027 9.83803 17.3799L12.6469 16.2583C13.8338 15.7844 15.1476 15.7688 16.3462 16.2146L17.2348 16.5451C18.319 16.9484 19.5129 17.0305 20.6432 16.7868V18.4777C20.6432 18.9847 20.979 19.4278 21.4788 19.5802H21.4788L21.8985 19.7081ZM21.4788 13.5393C20.9791 13.6917 20.6432 14.1348 20.6432 14.6418V15.8824C19.6292 16.144 18.5418 16.0897 17.5607 15.7247L16.672 15.3942C15.2558 14.8675 13.7033 14.8858 12.3006 15.4459L9.78463 16.4506C9.78548 16.4032 9.78663 16.3558 9.78856 16.3083C9.9203 13.0509 12.6604 10.4024 16.0267 10.2787C16.1112 10.2756 16.1951 10.274 16.2791 10.274C18.6028 10.274 20.7267 11.4572 21.8985 13.4114L21.4788 13.5393Z" fill="#283845"/>
<path d="M22.5728 15.3363V17.8429C22.5728 18.0856 22.7761 18.2823 23.0268 18.2823C23.2776 18.2823 23.4809 18.0856 23.4809 17.8429V15.3363C23.4809 15.0935 23.2776 14.8969 23.0268 14.8969C22.7761 14.8969 22.5728 15.0935 22.5728 15.3363Z" fill="#283845"/>
<path d="M27.6718 9.2941V8.12946C27.6718 7.68624 27.2991 7.32556 26.8411 7.32556H24.776C24.318 7.32556 23.9453 7.68618 23.9453 8.12946V9.2941C23.9453 9.73733 24.318 10.098 24.776 10.098H26.8411C27.2991 10.098 27.6718 9.73733 27.6718 9.2941ZM26.7636 9.21917H24.8534V8.20446H26.7636V9.21917Z" fill="#283845"/>
</g>
<defs>
<clipPath id="clip0">
<rect width="31" height="30" fill="white" transform="translate(-0.000244141)"/>
</clipPath>
</defs>
</svg>
